<?xml version="1.0" encoding="utf-8"?>
<!-- Generator: Adobe Illustrator 24.2.0, SVG Export Plug-In . SVG Version: 6.00 Build 0)  -->
<svg version="1.1" id="Layer_1" xmlns="http://www.w3.org/2000/svg" xmlns:xlink="http://www.w3.org/1999/xlink" x="0px" y="0px"
	 viewBox="0 0 96 37" style="enable-background:new 0 0 96 37;" xml:space="preserve">
<style type="text/css">
	.st0{fill:#3300FF;}
</style>
<path d="M8.7,34.2c-2.8-1.4-4.9-3.4-6.4-6.1C0.8,25.5,0,22.4,0,18.9c0-3.6,0.8-6.6,2.3-9.3c1.5-2.6,3.6-4.7,6.4-6.1
	c2.8-1.4,6-2.1,9.6-2.1c2.4,0,4.5,0.2,6.4,0.7c1.9,0.5,3.6,1.2,5.2,2.3v8.1c-1.4-1.1-3-1.9-4.8-2.4c-1.8-0.5-3.8-0.8-6.1-0.8
	c-3.3,0-5.8,0.9-7.6,2.6c-1.8,1.7-2.7,4.1-2.7,7.1c0,3,0.9,5.4,2.7,7.2c1.8,1.7,4.3,2.6,7.6,2.6c2.3,0,4.4-0.3,6.2-0.8
	c1.8-0.5,3.5-1.4,5.1-2.6v8c-3,2.1-7.1,3.1-12,3.1C14.6,36.3,11.4,35.6,8.7,34.2z"/>
<path d="M34.9,12.6h8.4v23h-8.4V12.6z"/>
<path d="M49.7,36c-1.2-0.2-2-0.5-2.6-0.8v-7.5c0.5,0.2,1.1,0.4,1.8,0.5c0.8,0.1,1.5,0.2,2.3,0.2c1.4,0,2.4-0.3,3-0.9
	c0.6-0.6,0.9-1.6,0.9-3V2.1h8.5v23.5c0,3.3-0.9,5.9-2.7,7.8c-1.8,1.9-4.4,2.9-7.8,2.9C51.9,36.3,50.8,36.2,49.7,36z"/>
<path d="M74.3,34.8c-2.1-1-3.8-2.5-5-4.3c-1.2-1.8-1.8-4-1.8-6.4s0.6-4.5,1.8-6.4c1.2-1.8,2.8-3.3,5-4.3c2.1-1,4.6-1.6,7.5-1.6
	c2.8,0,5.3,0.5,7.5,1.6c2.1,1,3.8,2.5,5,4.3c1.2,1.8,1.8,4,1.8,6.4s-0.6,4.5-1.8,6.4c-1.2,1.8-2.8,3.3-5,4.3c-2.1,1-4.6,1.6-7.5,1.6
	C78.9,36.3,76.4,35.8,74.3,34.8z M85.8,28.2c1-1,1.5-2.4,1.5-4.2c0-1.8-0.5-3.1-1.5-4.2c-1-1-2.4-1.5-4.1-1.5c-1.7,0-3,0.5-4.1,1.5
	c-1,1-1.5,2.4-1.5,4.2c0,1.8,0.5,3.1,1.5,4.2c1,1,2.4,1.5,4.1,1.5C83.5,29.8,84.8,29.3,85.8,28.2z"/>
<path class="st0" d="M36,8.3c-0.9-0.8-1.3-1.9-1.3-3.2c0-1.2,0.4-2.3,1.3-3.1c0.9-0.8,1.9-1.3,3.2-1.3c1.2,0,2.3,0.4,3.2,1.3
	c0.9,0.8,1.3,1.9,1.3,3.1s-0.4,2.3-1.3,3.1c-0.9,0.8-1.9,1.3-3.2,1.3C37.9,9.5,36.8,9.1,36,8.3z"/>
</svg>
