<svg xmlns="http://www.w3.org/2000/svg" width="19" height="11.97" viewBox="0 0 19 11.97">
  <defs>
    <style>
      .cls-1 {
        fill: #020609;
        fill-rule: evenodd;
      }
    </style>
  </defs>
  <path id="EmailLogo" class="cls-1" d="M1245.1,2028.02a1.233,1.233,0,0,0-.55.07c-0.08.05-.09,0.1-0.04,0.16a2.078,2.078,0,0,0,.37.31,2.763,2.763,0,0,1,.22.19l8.39,6.27,8.39-6.24,0.18-.18a4.661,4.661,0,0,0,.39-0.31,0.1,0.1,0,0,0-.01-0.18,1.074,1.074,0,0,0-.56-0.09H1245.1Zm-1.11,1.46v9.27a1.33,1.33,0,0,0,.33.82,0.924,0.924,0,0,0,.67.42h17a0.907,0.907,0,0,0,.67-0.42,1.33,1.33,0,0,0,.33-0.82v-9.27l-9.5,7.15Z" transform="translate(-1244 -2028.03)"/>
</svg>
