<svg id="instagram" xmlns="http://www.w3.org/2000/svg" width="43" height="44" viewBox="0 0 43 44">
  <defs>
    <style>
      .cls-1 {
        fill: #30f;
      }
      .cls-2 {
        fill: #fff;
        fill-rule: evenodd;
      }
    </style>
  </defs>
  <circle class="cls-1" cx="21" cy="22" r="20"/>
  <path id="instagram-2" data-name="instagram" class="cls-2" d="M17.5,21.5a4,4,0,1,1,4,4,4,4,0,0,1-4-4m-2.162,0A6.162,6.162,0,1,0,21.5,15.338,6.162,6.162,0,0,0,15.338,21.5m11.128-6.406a1.44,1.44,0,1,0,1.44-1.44,1.44,1.44,0,0,0-1.44,1.44M16.651,31.268a6.626,6.626,0,0,1-2.228-.413,3.976,3.976,0,0,1-2.278-2.278,6.642,6.642,0,0,1-.413-2.228c-0.058-1.265-.07-1.645-0.07-4.849s0.012-3.584.07-4.849a6.64,6.64,0,0,1,.413-2.228,3.974,3.974,0,0,1,2.278-2.277,6.649,6.649,0,0,1,2.228-.413c1.265-.058,1.645-0.07,4.849-0.07s3.584,0.012,4.849.07a6.654,6.654,0,0,1,2.228.413,3.972,3.972,0,0,1,2.278,2.278,6.641,6.641,0,0,1,.413,2.228c0.058,1.266.07,1.645,0.07,4.849s-0.012,3.584-.07,4.849a6.644,6.644,0,0,1-.413,2.228,3.975,3.975,0,0,1-2.277,2.278,6.631,6.631,0,0,1-2.228.413c-1.265.058-1.645,0.07-4.849,0.07s-3.584-.012-4.849-0.07m-0.1-21.7a8.8,8.8,0,0,0-2.913.558,6.136,6.136,0,0,0-3.509,3.51,8.794,8.794,0,0,0-.558,2.913C9.514,17.832,9.5,18.241,9.5,21.5s0.014,3.667.073,4.948a8.786,8.786,0,0,0,.558,2.913,6.137,6.137,0,0,0,3.509,3.51,8.8,8.8,0,0,0,2.913.557c1.28,0.059,1.689.073,4.948,0.073s3.668-.014,4.948-0.073a8.807,8.807,0,0,0,2.913-.557,6.137,6.137,0,0,0,3.509-3.51,8.8,8.8,0,0,0,.558-2.913c0.058-1.28.072-1.688,0.072-4.948s-0.014-3.668-.072-4.948a8.808,8.808,0,0,0-.558-2.913,6.136,6.136,0,0,0-3.509-3.51,8.807,8.807,0,0,0-2.913-.558C25.168,9.513,24.759,9.5,21.5,9.5s-3.667.014-4.948,0.072"/>
</svg>
