<svg xmlns="http://www.w3.org/2000/svg" width="19" height="18" viewBox="0 0 19 18">
  <defs>
    <style>
      .cls-1 {
        fill: #020609;
        fill-rule: evenodd;
      }
    </style>
  </defs>
  <path id="LinkedInLogo" class="cls-1" d="M1234.01,2033.03v6.96h-4.08v-6.49c0-1.63-.59-2.74-2.06-2.74a2.22,2.22,0,0,0-2.09,1.47,2.691,2.691,0,0,0-.14.99v6.77h-4.08s0.06-10.99,0-12.13h4.08v1.72a0.138,0.138,0,0,0-.03.04h0.03v-0.04a4.046,4.046,0,0,1,3.67-2.01C1232,2027.57,1234.01,2029.31,1234.01,2033.03Zm-16.71-11.02a2.1,2.1,0,1,0-.06,4.19h0.03A2.1,2.1,0,1,0,1217.3,2022.01Zm-2.07,17.98h4.08v-12.13h-4.08v12.13Z" transform="translate(-1215 -2022)"/>
</svg>
