<svg xmlns="http://www.w3.org/2000/svg" width="15.625" height="10.437" viewBox="0 0 15.625 10.437">
  <defs>
    <style>
      .cls-1 {
        fill: #30f;
        fill-rule: evenodd;
      }
    </style>
  </defs>
  <path id="mail" class="cls-1" d="M721.7,312.787H708.184a0.919,0.919,0,0,1-.918-0.918v-8.687a0.831,0.831,0,0,1,.83-0.83h13.99a0.834,0.834,0,0,1,.833.833v8.383A1.22,1.22,0,0,1,721.7,312.787Zm-13.6-9.632-0.027,8.714a0.115,0.115,0,0,0,.115.115H721.7a0.417,0.417,0,0,0,.417-0.416v-8.383a0.031,0.031,0,0,0-.03-0.03H708.1Zm14.271,9.444a0.408,0.408,0,0,1-.206-0.057l-5.065-3.019a0.4,0.4,0,1,1,.411-0.689l5.066,3.018A0.4,0.4,0,0,1,722.367,312.6Zm-14.549,0a0.4,0.4,0,0,1-.206-0.747l5.066-3.018a0.4,0.4,0,1,1,.411.689l-5.066,3.019A0.4,0.4,0,0,1,707.818,312.6Zm7.267-2.945a0.885,0.885,0,0,1-.545-0.17l-6.944-6.233a0.4,0.4,0,1,1,.536-0.6l6.9,6.192a0.288,0.288,0,0,0,.124,0l6.9-6.19a0.4,0.4,0,1,1,.536.6l-6.926,6.215A0.934,0.934,0,0,1,715.085,309.654Z" transform="translate(-707.281 -302.344)"/>
</svg>
