<svg xmlns="http://www.w3.org/2000/svg" width="15.656" height="15.656" viewBox="0 0 15.656 15.656">
  <defs>
    <style>
      .cls-1 {
        fill: #30f;
        fill-rule: evenodd;
      }
    </style>
  </defs>
  <path id="phone" class="cls-1" d="M721.335,272.748l1.45,1.45c0.8,0.8.415,1.758,0,2.9a34.27,34.27,0,0,1-4.571,5.977,30.919,30.919,0,0,1-5.939,4.538c-1.057.545-2.1,0.8-2.9,0l-1.45-1.45a0.957,0.957,0,0,1,0-1.45l2.9-2.176a1.093,1.093,0,0,1,1.45,0h0l0.857,0.858a29,29,0,0,0,3.129-2.671,25.053,25.053,0,0,0,2.337-2.738l-0.887-.888a1.093,1.093,0,0,1,0-1.45l2.174-2.9a1.026,1.026,0,0,1,1.45,0m-1.405,5.121-1.165-1.165a0.7,0.7,0,0,1,0-.923l1.384-1.846a0.587,0.587,0,0,1,.922,0l0.923,0.923a1.489,1.489,0,0,1,.066,1.516,30.617,30.617,0,0,1-4.349,5.8,40.239,40.239,0,0,1-6.161,4.713,1.846,1.846,0,0,1-1.515-.066l-0.923-.923a0.7,0.7,0,0,1,0-.923l1.845-1.384a0.693,0.693,0,0,1,.922,0l1.137,1.137A25.581,25.581,0,0,0,719.93,277.869Z" transform="translate(-707.594 -272.469)"/>
</svg>
