<svg xmlns="http://www.w3.org/2000/svg" width="11.75" height="15.656" viewBox="0 0 11.75 15.656">
  <defs>
    <style>
      .cls-1 {
        fill: #30f;
        fill-rule: evenodd;
      }
    </style>
  </defs>
  <path id="pin" class="cls-1" d="M715.418,259.861a0.468,0.468,0,0,1-.3-0.111c-0.227-.193-5.571-4.783-5.571-9.6a5.874,5.874,0,1,1,11.747,0c0,4.9-5.347,9.413-5.574,9.6A0.469,0.469,0,0,1,715.418,259.861Zm0-14.7a4.968,4.968,0,0,0-4.933,4.99c0,3.756,3.823,7.573,4.936,8.6,1.114-1.018,4.931-4.782,4.931-8.6A4.968,4.968,0,0,0,715.418,245.16Zm0,8.062a3.083,3.083,0,1,1,3.055-3.082A3.072,3.072,0,0,1,715.418,253.222Zm0-5.216a2.134,2.134,0,1,0,2.115,2.134A2.126,2.126,0,0,0,715.418,248.006Z" transform="translate(-709.531 -244.219)"/>
</svg>
