<?xml version="1.0" encoding="utf-8"?>
<!-- Generator: Adobe Illustrator 24.2.0, SVG Export Plug-In . SVG Version: 6.00 Build 0)  -->
<svg version="1.1" id="Layer_2" xmlns="http://www.w3.org/2000/svg" xmlns:xlink="http://www.w3.org/1999/xlink" x="0px" y="0px"
	 viewBox="0 0 22 22" style="enable-background:new 0 0 22 22;" xml:space="preserve">
<style type="text/css">
	.st0{fill:#ffffff;}
</style>
<path class="st0" d="M16.1,14.7c1.3-1.6,2-3.6,2-5.7c0-5-4.1-9-9.1-9C4.1,0,0,4,0,9c0,5,4.1,9,9.1,9c2,0,4-0.7,5.5-1.9l5.9,5.9
	l1.5-1.5L16.1,14.7z M16,9c0,3.8-3.1,6.9-7,6.9c-3.8,0-7-3.1-7-6.9s3.1-6.9,7-6.9C12.9,2.1,16,5.2,16,9z"/>
</svg>
