<svg id="twitter" xmlns="http://www.w3.org/2000/svg" width="43" height="44" viewBox="0 0 43 44">
  <defs>
    <style>
      .cls-1 {
        fill: #30f;
      }

      .cls-2 {
        fill: #fff;
        fill-rule: evenodd;
      }
    </style>
  </defs>
  <circle class="cls-1" cx="21" cy="22" r="20"/>
  <path id="TwiterLogo" class="cls-2" d="M34,15.226a9.993,9.993,0,0,1-2.828.758,4.843,4.843,0,0,0,2.165-2.662,9.991,9.991,0,0,1-3.127,1.168,4.97,4.97,0,0,0-3.594-1.52,4.869,4.869,0,0,0-4.924,4.812,4.718,4.718,0,0,0,.128,1.1A14.086,14.086,0,0,1,11.671,13.85,4.7,4.7,0,0,0,11,16.27a4.783,4.783,0,0,0,2.19,4.005,5,5,0,0,1-2.23-.6c0,0.02,0,.04,0,0.061a4.845,4.845,0,0,0,3.95,4.718,5.05,5.05,0,0,1-2.224.082,4.916,4.916,0,0,0,4.6,3.342,10.026,10.026,0,0,1-6.115,2.06A10.348,10.348,0,0,1,10,29.868a14.174,14.174,0,0,0,7.548,2.162A13.747,13.747,0,0,0,31.557,18.339c0-.208,0-0.416-0.014-0.623A9.871,9.871,0,0,0,34,15.226Z"/>
</svg>
